 <svg version="1.0" xmlns="http://www.w3.org/2000/svg" width="700.000000pt" height="700.000000pt" viewBox="0 0 70.000000 70.000000" preserveAspectRatio="xMidYMid meet">
<metadata>
Created by potrace 1.12, written by Peter Selinger 2001-2015
</metadata>
<g transform="translate(0.000000,70.000000) scale(0.100000,-0.100000)" fill="#000000" stroke="none">
<path d="M3407 6533 c-15 -2 -32 -13 -38 -24 -7 -14 -16 -18 -31 -13 -15 4
-27 -3 -50 -30 -18 -22 -38 -36 -53 -36 -12 0 -28 -7 -35 -15 -7 -8 -20 -15
-29 -15 -10 0 -32 -16 -51 -35 -19 -20 -44 -35 -57 -35 -12 0 -27 -9 -33 -19
-6 -12 -17 -17 -29 -14 -13 3 -23 -2 -30 -16 -7 -13 -22 -21 -37 -21 -16 0
-35 -11 -51 -30 -15 -18 -34 -30 -49 -30 -13 0 -28 -9 -35 -21 -7 -14 -17 -19
-30 -16 -12 3 -23 -2 -29 -14 -6 -11 -21 -19 -35 -19 -16 0 -34 -12 -52 -35
-19 -24 -36 -35 -54 -35 -15 0 -29 -7 -33 -15 -3 -8 -17 -15 -30 -15 -17 0
-35 -12 -53 -35 -16 -20 -37 -35 -49 -35 -12 0 -27 -7 -34 -15 -7 -8 -23 -15
-36 -15 -13 0 -28 -9 -34 -20 -6 -12 -16 -17 -26 -13 -10 4 -26 -7 -45 -31
-20 -23 -39 -36 -54 -36 -14 0 -29 -9 -35 -20 -8 -15 -17 -19 -35 -14 -17 4
-26 0 -35 -15 -6 -12 -20 -21 -31 -21 -11 0 -35 -16 -53 -35 -21 -22 -39 -33
-49 -29 -10 3 -20 -2 -27 -15 -6 -13 -21 -21 -36 -21 -16 0 -35 -11 -51 -30
-15 -18 -34 -30 -49 -30 -13 0 -28 -9 -34 -20 -8 -14 -19 -20 -38 -18 -22 2
-28 -2 -30 -20 -4 -30 33 -72 64 -72 12 0 27 -7 34 -15 7 -8 22 -15 34 -15 12
0 33 -15 49 -35 18 -23 36 -35 53 -35 13 0 27 -7 30 -15 4 -8 19 -15 35 -15
18 0 32 -7 39 -21 7 -13 17 -18 27 -15 10 4 28 -7 51 -31 20 -22 43 -37 53
-35 10 2 23 -6 29 -18 9 -16 18 -20 35 -16 18 5 28 -2 50 -34 22 -32 32 -39
50 -34 17 4 26 0 35 -16 8 -14 18 -20 30 -17 11 3 26 -3 36 -14 9 -10 25 -19
35 -19 10 0 31 -16 46 -35 15 -19 37 -35 48 -35 11 0 33 16 48 35 18 23 36 35
52 35 14 0 29 8 35 20 8 14 17 19 30 15 13 -4 22 1 30 15 7 12 21 20 38 20 20
0 33 10 51 35 19 28 28 34 46 29 17 -4 26 0 35 16 9 16 18 20 35 16 18 -5 27
-1 35 14 6 11 19 20 29 20 10 0 35 16 55 36 21 21 43 33 51 30 9 -3 19 3 25
14 6 12 21 20 35 20 16 0 34 12 52 35 19 24 36 35 54 35 15 0 29 7 33 15 3 8
17 15 30 15 24 0 55 35 42 48 -8 7 -119 -46 -167 -80 -21 -15 -61 -39 -91 -54
-29 -15 -62 -35 -73 -45 -11 -10 -65 -41 -120 -69 -55 -28 -109 -60 -120 -70
-11 -10 -61 -39 -112 -63 -51 -25 -104 -54 -119 -66 -31 -24 -47 -26 -63 -7
-6 7 -58 37 -116 65 -57 28 -117 63 -134 76 -16 14 -54 37 -84 50 -30 14 -61
33 -68 41 -7 9 -58 38 -113 66 -56 28 -110 58 -121 68 -11 10 -48 33 -83 52
-35 18 -64 37 -65 42 -1 5 17 19 39 31 23 12 56 33 75 47 19 14 59 38 89 53
30 15 64 35 75 45 11 10 65 41 121 68 55 28 106 58 114 67 7 9 60 39 116 67
57 27 109 56 115 64 6 8 39 28 73 45 33 17 75 41 92 54 17 13 69 43 115 66 46
23 100 54 119 68 19 14 78 47 130 74 52 27 104 56 115 67 11 10 45 30 75 45
30 15 64 35 75 44 26 23 111 71 124 71 8 0 11 -148 11 -490 l0 -489 45 -46
c25 -25 54 -45 64 -45 10 0 24 -7 31 -15 7 -8 20 -15 30 -15 10 0 23 -7 30
-15 7 -8 22 -15 34 -15 12 0 37 -16 56 -35 19 -19 42 -35 52 -35 10 0 21 -7
24 -15 4 -8 19 -15 35 -15 18 0 32 -7 39 -21 7 -12 17 -18 27 -15 9 4 28 -7
50 -29 19 -19 43 -35 52 -35 10 0 26 -9 36 -20 10 -11 27 -20 37 -20 10 0 32
-15 48 -34 21 -23 36 -32 49 -29 13 3 23 -2 30 -16 7 -12 22 -21 36 -21 13 0
28 -8 34 -17 9 -17 11 -16 31 5 14 15 28 21 40 17 13 -4 22 1 30 15 6 11 18
20 28 20 9 0 34 16 55 35 21 19 43 32 48 29 6 -3 19 3 30 15 11 12 30 21 43
21 13 0 26 7 30 15 3 8 14 15 24 15 10 0 33 16 52 35 19 19 45 35 58 35 12 0
25 7 28 15 4 8 16 15 29 15 12 0 28 7 35 15 7 8 22 15 34 15 12 0 34 15 50 35
17 20 39 35 51 35 11 0 28 9 38 20 9 11 22 17 30 15 7 -3 28 10 47 30 23 24
43 35 62 35 15 0 28 4 28 8 0 18 -87 92 -108 92 -13 0 -25 7 -28 15 -4 8 -16
15 -28 15 -12 0 -37 16 -56 35 -19 19 -44 35 -56 35 -12 0 -24 7 -28 15 -3 8
-17 15 -30 15 -15 0 -30 8 -36 20 -6 11 -21 20 -34 20 -15 0 -34 12 -49 30
-14 17 -34 30 -45 30 -10 0 -27 9 -37 20 -10 12 -24 19 -31 16 -7 -3 -24 4
-37 15 -14 10 -32 19 -41 19 -8 0 -28 16 -43 35 -19 24 -36 35 -54 35 -15 0
-29 7 -33 15 -3 8 -16 15 -29 15 -15 0 -34 13 -53 35 -16 19 -34 33 -41 31 -6
-3 -23 4 -36 15 -14 10 -32 19 -40 19 -8 0 -20 7 -27 15 -7 8 -22 15 -34 15
-12 0 -36 16 -53 35 -18 19 -42 35 -53 35 -11 0 -23 7 -26 15 -4 8 -17 15 -30
15 -13 0 -32 9 -43 21 -11 12 -24 18 -30 15 -6 -4 -27 9 -46 29 -20 19 -44 35
-55 35 -11 0 -24 9 -30 20 -7 13 -21 20 -39 20 -16 0 -31 7 -35 15 -3 8 -16
15 -29 15 -15 0 -34 13 -53 35 -16 20 -38 35 -50 35 -12 0 -27 7 -34 15 -7 8
-22 15 -34 15 -12 0 -27 9 -34 20 -7 11 -16 19 -20 19 -4 -1 -19 -4 -35 -6z"></path>
<path d="M3363 5248 c-9 -10 -26 -18 -38 -18 -13 0 -25 -7 -29 -15 -3 -8 -16
-15 -30 -15 -13 0 -26 -7 -30 -15 -3 -8 -16 -15 -30 -15 -15 0 -35 -13 -55
-35 -17 -19 -39 -35 -49 -35 -11 0 -25 -7 -32 -15 -7 -8 -22 -15 -34 -15 -12
0 -34 -15 -50 -35 -18 -21 -38 -35 -52 -35 -13 0 -27 -7 -31 -15 -5 -8 -18
-16 -30 -18 -12 -2 -31 -11 -41 -20 -10 -9 -26 -17 -35 -17 -10 0 -30 -14 -45
-31 -18 -20 -39 -32 -56 -33 l-27 -1 1 -408 c0 -355 3 -412 16 -433 9 -13 25
-24 36 -24 11 0 31 -9 45 -20 14 -11 32 -20 40 -20 8 0 21 -7 29 -15 9 -8 23
-15 33 -15 9 0 32 -16 51 -35 19 -19 44 -35 56 -35 12 0 24 -7 28 -15 3 -8 17
-15 31 -15 14 0 28 -7 31 -15 4 -8 16 -15 28 -15 12 0 37 -16 56 -35 19 -19
41 -35 51 -35 9 0 22 -7 29 -15 7 -8 22 -15 34 -15 12 0 29 -9 39 -20 9 -11
25 -20 36 -20 10 0 24 -7 31 -15 7 -8 16 -12 21 -9 5 3 9 349 9 800 0 687 2
795 15 800 17 7 135 -47 154 -70 7 -9 59 -39 115 -67 55 -28 110 -59 121 -69
11 -10 63 -39 115 -65 52 -26 105 -56 116 -67 12 -11 37 -27 55 -36 l34 -17 5
-400 c3 -220 3 -408 1 -418 -2 -9 -15 -20 -29 -24 -14 -3 -38 -19 -54 -35 -15
-15 -36 -28 -46 -28 -10 0 -27 -9 -37 -20 -10 -11 -26 -20 -35 -20 -9 0 -29
-13 -45 -30 -16 -16 -37 -30 -47 -30 -10 0 -26 -9 -35 -20 -10 -11 -27 -20
-39 -20 -12 0 -27 -7 -34 -15 -7 -8 -20 -15 -29 -15 -10 0 -32 -16 -51 -35
-19 -19 -41 -35 -51 -35 -9 0 -22 -7 -29 -15 -7 -8 -23 -15 -35 -15 -12 0 -28
-7 -35 -15 -7 -8 -20 -15 -29 -15 -10 0 -32 -16 -51 -35 -19 -19 -42 -35 -51
-35 -10 0 -24 -7 -33 -15 -8 -8 -21 -15 -29 -15 -8 0 -26 -9 -40 -20 -14 -11
-31 -20 -39 -20 -8 0 -27 -13 -43 -30 -16 -16 -37 -30 -47 -30 -10 0 -26 -9
-35 -20 -10 -11 -27 -20 -38 -20 -12 0 -34 -13 -50 -30 -16 -16 -37 -30 -47
-30 -10 0 -26 -9 -35 -20 -10 -11 -25 -20 -34 -20 -9 0 -22 -7 -29 -15 -7 -8
-22 -15 -34 -15 -11 0 -37 -16 -56 -35 -19 -19 -42 -35 -51 -35 -9 0 -22 -7
-29 -15 -7 -8 -21 -15 -31 -15 -9 0 -24 -7 -33 -15 -8 -8 -22 -15 -30 -15 -9
0 -33 -16 -55 -35 -21 -19 -45 -35 -53 -35 -9 0 -21 -7 -28 -15 -7 -8 -21 -15
-31 -15 -11 0 -27 -9 -36 -20 -10 -11 -27 -20 -38 -20 -12 0 -34 -13 -50 -30
-16 -16 -36 -30 -45 -30 -9 0 -25 -9 -35 -20 -10 -11 -28 -20 -40 -20 -11 0
-32 -13 -45 -30 -14 -16 -32 -29 -41 -30 -9 0 -28 -9 -42 -20 -14 -11 -35 -20
-46 -20 l-22 0 3 384 3 384 24 26 c14 15 52 39 86 55 34 16 75 40 91 54 16 13
69 43 118 67 48 24 100 53 115 65 14 12 67 43 116 68 97 48 135 80 114 93 -8
4 -18 -1 -27 -14 -9 -14 -25 -22 -42 -22 -16 0 -30 -7 -34 -15 -3 -8 -17 -15
-30 -15 -15 0 -30 -8 -36 -20 -7 -14 -17 -19 -29 -15 -11 3 -29 -7 -51 -30
-19 -19 -41 -35 -50 -35 -9 0 -25 -9 -34 -19 -10 -11 -25 -17 -36 -14 -12 3
-22 -3 -30 -17 -9 -16 -18 -20 -35 -16 -18 5 -28 -2 -50 -34 -22 -32 -32 -39
-50 -34 -17 4 -26 0 -35 -16 -7 -12 -19 -20 -30 -18 -11 2 -35 -13 -59 -37
l-41 -39 0 -392 c0 -305 3 -393 13 -397 9 -3 9 -7 1 -18 -25 -31 -24 -62 2
-86 14 -13 34 -23 45 -23 10 0 27 -9 36 -20 10 -11 27 -20 39 -20 12 0 24 -7
28 -15 3 -8 16 -15 29 -15 13 0 37 -15 57 -35 19 -20 40 -33 47 -30 8 2 21 -4
30 -15 10 -11 28 -20 41 -20 12 0 25 -7 28 -15 4 -8 16 -15 28 -15 12 0 37
-16 56 -35 19 -19 44 -35 56 -35 12 0 24 -7 28 -15 3 -8 16 -15 28 -15 14 0
36 -15 55 -35 25 -27 40 -35 66 -35 19 0 40 7 47 15 7 8 23 15 36 15 13 0 28
9 34 20 6 12 21 20 36 20 13 0 27 7 30 15 4 8 16 15 28 15 12 0 37 16 56 35
19 19 44 35 56 35 12 0 24 7 28 15 3 8 16 15 29 15 13 0 37 15 57 35 19 19 44
35 56 35 12 0 24 7 28 15 3 8 17 15 31 15 14 0 28 7 31 15 4 8 16 15 29 15 14
0 36 15 56 38 23 26 41 37 61 37 l29 0 2 410 c2 403 2 410 22 413 13 2 33 -11
55 -33 18 -19 41 -35 51 -35 9 0 22 -7 29 -15 7 -8 23 -15 35 -15 13 0 25 -7
29 -15 3 -8 16 -15 29 -15 13 0 37 -15 57 -35 19 -19 41 -35 51 -35 9 0 22 -7
29 -15 7 -8 20 -15 30 -15 9 0 27 -9 40 -20 13 -11 31 -20 40 -20 9 0 29 -13
45 -30 16 -16 36 -30 45 -30 9 0 25 -9 35 -20 10 -11 27 -20 37 -20 10 0 32
-14 48 -30 16 -17 38 -30 48 -30 10 0 27 -9 37 -20 10 -11 26 -20 35 -20 10 0
23 -7 30 -15 7 -8 22 -15 34 -15 11 0 37 -16 56 -35 19 -19 42 -35 51 -35 9 0
22 -7 29 -15 7 -8 20 -15 30 -15 10 0 23 -7 30 -15 7 -8 21 -15 31 -15 10 0
33 -16 52 -35 19 -19 44 -35 56 -35 12 0 24 -7 27 -15 4 -8 16 -15 29 -15 12
0 30 -9 40 -20 10 -11 26 -20 35 -20 9 0 27 -11 40 -25 13 -14 32 -25 42 -25
17 0 18 21 18 438 l0 439 -23 21 c-13 12 -32 22 -43 22 -10 0 -34 16 -51 35
-18 19 -42 35 -53 35 -11 0 -23 7 -26 15 -4 8 -17 15 -30 15 -13 0 -32 9 -43
21 -11 12 -24 18 -30 14 -7 -3 -28 10 -47 29 -20 20 -44 36 -53 36 -10 0 -26
9 -36 20 -10 11 -28 20 -40 20 -13 0 -25 7 -29 15 -3 8 -16 15 -29 15 -15 0
-34 13 -53 35 -16 20 -38 35 -50 35 -12 0 -27 7 -35 16 -7 8 -21 13 -30 11
-10 -3 -23 1 -29 8 -7 9 -10 147 -10 428 l1 415 -25 27 c-15 16 -32 25 -40 22
-9 -4 -27 8 -45 29 -19 22 -39 34 -55 34 -15 0 -30 8 -36 20 -8 14 -17 19 -30
15 -13 -4 -22 1 -30 15 -6 12 -21 20 -35 20 -16 0 -34 12 -52 35 -16 20 -37
35 -49 35 -12 0 -27 7 -34 15 -7 8 -23 15 -36 15 -13 0 -28 9 -34 19 -6 12
-17 17 -27 15 -12 -3 -31 8 -52 30 -19 20 -43 36 -52 36 -10 0 -22 8 -28 17
-14 26 -115 26 -138 1z"></path>
<path d="M840 4068 c0 -2 -1 -459 -1 -1017 -1 -1012 -1 -1015 19 -1022 12 -5
28 -19 38 -33 10 -16 26 -26 40 -26 14 0 27 -7 30 -15 4 -8 19 -15 35 -15 18
0 32 -7 39 -21 7 -13 17 -18 27 -15 10 4 28 -7 51 -31 20 -22 43 -37 53 -35
10 2 23 -6 29 -17 7 -14 21 -21 39 -21 16 0 31 -7 35 -15 3 -8 17 -15 30 -15
17 0 35 -12 53 -35 16 -20 37 -35 49 -35 12 0 27 -7 34 -15 7 -8 20 -15 30
-15 10 0 23 -7 30 -15 7 -8 22 -15 34 -15 12 0 33 -15 49 -35 18 -23 36 -35
53 -35 13 0 27 -7 30 -15 4 -8 19 -15 35 -15 18 0 32 -7 39 -20 6 -12 19 -19
32 -17 16 1 29 -9 47 -35 19 -30 29 -36 47 -32 16 4 25 0 34 -16 9 -16 18 -20
35 -16 18 5 27 1 35 -14 6 -11 21 -20 35 -20 15 0 34 -13 54 -36 19 -24 35
-35 45 -31 10 4 20 -1 26 -13 6 -11 21 -20 34 -20 13 0 29 -7 36 -15 7 -8 22
-15 34 -15 12 0 33 -15 49 -35 18 -23 36 -35 53 -35 13 0 27 -7 30 -15 4 -8
19 -15 35 -15 18 0 32 -7 39 -21 7 -13 17 -18 27 -15 10 4 29 -8 54 -35 23
-25 44 -39 56 -37 17 3 18 29 21 507 l2 505 -27 28 c-17 18 -33 26 -44 23 -12
-4 -22 1 -29 15 -6 11 -21 20 -35 20 -15 0 -34 13 -53 36 -23 27 -35 34 -50
30 -15 -5 -24 -1 -32 14 -6 12 -21 20 -35 20 -14 0 -29 8 -35 19 -6 12 -17 17
-29 14 -13 -3 -27 6 -46 31 -18 24 -36 36 -52 36 -13 0 -26 7 -29 15 -4 8 -18
15 -33 15 -18 0 -35 11 -54 35 -18 23 -36 35 -53 35 -13 0 -27 7 -30 15 -4 8
-19 15 -35 15 -18 0 -32 7 -39 21 -7 12 -18 18 -26 15 -9 -3 -33 12 -60 37
l-45 42 1 495 1 495 -26 1 c-16 1 -38 14 -55 33 -16 17 -38 31 -49 31 -11 0
-25 9 -31 20 -6 12 -21 20 -36 20 -16 0 -35 11 -51 30 -15 18 -34 30 -49 30
-13 0 -28 9 -34 21 -7 11 -18 18 -25 15 -8 -3 -25 4 -38 15 -14 10 -32 19 -41
19 -9 0 -31 16 -48 36 -17 20 -37 33 -45 30 -7 -3 -21 3 -30 14 -10 11 -28 20
-41 20 -12 0 -25 7 -28 15 -4 8 -17 15 -30 15 -14 0 -36 14 -55 35 -20 21 -42
35 -56 35 -13 0 -26 7 -29 15 -4 8 -17 15 -30 15 -13 0 -28 9 -34 20 -9 16
-29 28 -30 18z m1040 -1633 c52 -26 104 -55 115 -65 11 -10 52 -34 90 -55 39
-20 79 -45 90 -54 11 -10 63 -39 115 -66 52 -26 104 -56 116 -67 12 -10 50
-33 85 -51 l64 -32 3 -465 c1 -256 0 -471 -3 -479 -5 -11 -8 -11 -23 2 -9 8
-60 36 -112 62 -52 26 -104 55 -115 65 -11 10 -66 41 -122 69 -55 29 -107 59
-114 68 -8 9 -58 37 -113 64 -54 26 -108 57 -120 68 -12 12 -65 41 -117 67
-52 25 -103 54 -114 64 -11 10 -63 39 -115 66 -52 26 -106 57 -120 70 -14 12
-65 42 -115 65 -49 23 -101 52 -115 64 -25 22 -159 95 -212 114 -16 6 -28 17
-28 24 0 18 52 67 72 67 8 0 21 7 28 15 7 8 20 15 30 15 10 0 23 7 30 15 7 8
22 15 34 15 12 0 37 16 56 35 19 19 41 35 51 35 9 0 22 7 29 15 7 8 21 15 30
15 10 0 35 16 54 35 20 19 45 35 55 35 10 0 24 7 31 15 7 8 20 15 30 15 9 0
25 9 35 20 10 11 25 20 34 20 9 0 30 14 48 30 18 17 40 30 51 30 10 0 27 9 37
20 10 11 25 20 32 20 8 0 27 9 41 21 l26 20 26 -30 c14 -16 68 -50 120 -76z"></path>
<path d="M5957 4035 c-18 -23 -36 -35 -52 -35 -14 0 -29 -9 -35 -21 -9 -15
-18 -19 -35 -15 -18 5 -27 1 -35 -14 -6 -12 -21 -20 -35 -20 -16 0 -34 -12
-52 -35 -15 -19 -35 -35 -44 -35 -9 0 -22 -7 -29 -15 -7 -8 -23 -15 -36 -15
-14 0 -33 -13 -51 -35 -19 -24 -36 -35 -54 -35 -15 0 -29 -7 -33 -15 -3 -8
-17 -15 -30 -15 -15 0 -30 -8 -36 -20 -7 -14 -17 -19 -29 -15 -11 3 -29 -7
-51 -30 -19 -20 -44 -35 -57 -35 -12 0 -27 -9 -33 -20 -6 -12 -16 -17 -26 -13
-9 3 -26 -5 -42 -20 l-27 -26 3 -481 c2 -376 5 -481 15 -477 9 3 13 115 17
478 l5 474 63 32 c34 17 77 42 95 56 18 13 75 45 127 71 52 26 104 56 115 66
11 10 48 32 81 49 34 17 67 38 75 47 7 8 59 38 116 66 57 28 106 54 109 59 3
5 14 9 25 9 19 0 19 -16 19 -950 0 -587 4 -950 9 -950 6 0 12 4 15 9 3 5 6
447 6 982 l1 974 -23 3 c-16 2 -31 -8 -51 -33z"></path>
<path d="M3460 2714 c0 -20 24 -44 46 -44 13 0 27 -7 30 -15 4 -8 16 -15 28
-15 12 0 37 -16 56 -35 19 -19 41 -35 50 -35 9 0 25 -9 34 -19 10 -11 25 -17
36 -14 12 3 22 -3 29 -16 7 -12 22 -21 35 -21 15 0 34 -12 49 -30 16 -19 35
-30 51 -30 15 0 30 -8 36 -20 8 -14 17 -19 30 -15 13 4 22 -1 30 -15 6 -12 21
-20 35 -20 16 0 34 -12 52 -35 23 -29 35 -35 65 -35 28 0 40 5 49 21 7 13 17
19 29 16 11 -3 26 3 36 14 9 10 25 19 35 19 10 0 31 16 46 35 19 24 36 35 54
35 15 0 29 7 33 15 3 8 17 15 30 15 15 0 30 8 36 20 7 14 17 19 29 15 11 -3
29 7 51 30 19 19 41 35 50 35 9 0 25 9 35 20 10 11 26 18 34 15 10 -3 27 8 44
30 18 23 36 35 53 35 23 0 43 24 31 37 -11 10 -55 -7 -87 -33 -17 -15 -61 -42
-98 -61 -37 -19 -76 -42 -87 -52 -11 -10 -58 -38 -105 -61 -47 -23 -99 -52
-117 -66 -39 -30 -166 -94 -186 -94 -9 0 -30 12 -47 27 -18 14 -75 48 -129 73
-53 26 -102 54 -109 63 -7 8 -59 38 -116 65 -56 28 -109 58 -116 67 -8 9 -44
32 -82 51 -65 33 -88 40 -88 28z"></path>
<path d="M5100 2550 c-6 -11 -21 -20 -34 -20 -15 0 -34 -12 -49 -30 -16 -19
-35 -30 -51 -30 -15 0 -30 -8 -36 -20 -6 -11 -21 -20 -34 -20 -13 0 -26 -7
-30 -15 -3 -8 -16 -15 -29 -15 -13 0 -37 -15 -57 -35 -19 -19 -44 -35 -56 -35
-12 0 -24 -7 -28 -15 -3 -8 -16 -15 -30 -15 -13 0 -26 -7 -30 -15 -3 -8 -16
-15 -30 -15 -15 0 -35 -13 -55 -35 -17 -19 -39 -35 -49 -35 -11 0 -25 -7 -32
-15 -7 -8 -23 -15 -36 -15 -13 0 -28 -9 -34 -20 -6 -11 -20 -20 -32 -20 -11 0
-38 -16 -59 -35 l-39 -35 -1 -513 c0 -324 4 -513 10 -515 5 -2 15 6 21 17 6
13 21 21 36 21 13 0 27 7 30 15 4 8 15 15 26 15 11 0 31 9 45 19 13 11 30 18
36 15 7 -2 25 12 41 31 19 22 38 35 53 35 13 0 26 7 29 15 4 8 18 15 33 15 18
0 35 11 54 35 15 19 36 35 46 35 10 0 24 7 31 15 7 8 22 15 35 15 12 0 30 9
40 20 10 11 27 20 37 20 11 0 31 14 45 30 15 18 34 30 49 30 13 0 28 9 34 20
6 12 21 20 36 20 13 0 27 7 30 15 4 8 16 15 28 15 12 0 37 16 56 35 19 19 44
35 56 35 12 0 24 7 28 15 3 8 17 15 31 15 14 0 28 7 31 15 4 8 16 15 28 15 12
0 37 16 56 35 19 19 44 35 56 35 12 0 24 7 28 15 3 8 16 15 28 15 13 0 31 9
41 20 9 11 25 20 36 20 10 0 35 16 54 35 22 22 41 33 50 29 10 -3 20 3 27 15
6 12 21 21 34 21 15 0 34 12 49 30 14 17 34 30 45 30 10 0 27 9 37 20 10 11
28 20 40 20 13 0 25 7 29 15 3 8 15 15 28 15 12 0 35 12 50 27 l28 27 -22 23
c-12 13 -27 23 -34 23 -20 0 -106 48 -136 75 -14 14 -35 25 -46 25 -10 0 -27
9 -37 20 -10 11 -26 20 -35 20 -10 0 -23 7 -30 15 -7 8 -22 15 -33 15 -11 0
-35 16 -54 35 -19 19 -42 35 -52 35 -10 0 -24 7 -31 15 -7 8 -20 15 -30 15
-10 0 -23 7 -30 15 -7 8 -20 15 -30 15 -9 0 -34 16 -54 35 -21 19 -46 35 -55
35 -10 0 -24 7 -31 15 -7 8 -20 15 -29 15 -10 0 -32 16 -51 35 -27 28 -42 35
-72 35 -27 0 -40 -5 -48 -20z"></path>
</g>
</svg>